<svg width="148" height="177" viewBox="0 0 148 177" fill="none" xmlns="http://www.w3.org/2000/svg">
<path d="M90.5 76.5V135.5C90.5 136.605 89.6012 137.504 88.5089 137.34C77.7187 135.719 57.205 121.894 57 100L57 41C57 39.8954 57.8988 38.9961 58.9912 39.1602C69.7813 40.7807 90.295 54.6062 90.5 76.5Z" fill="black"/>
<path d="M113.314 2.89869C165.504 37.4401 153.674 99.0014 111.731 128.911C110.437 129.834 108.674 128.891 108.674 127.302L108.674 68.0686C108.494 48.0922 89.3421 35.9608 81.1158 35.9608L60.2487 35.9608C59.9034 35.9608 59.5694 35.8713 59.269 35.7012C58.1754 35.0819 57.4201 34.6504 56.0258 33.8203C51.0053 30.2753 48.0526 27.7289 42.4525 21.8333C37.5867 16.1666 35.1516 13.1662 31.347 8.13399C29.6766 5.74528 28.6857 4.27376 27.886 3.03133C27.0402 1.71712 28.0081 0 29.571 0L34.2262 0L49.8561 0L70.4217 0L103.217 0C106.79 0 110.335 0.926962 113.314 2.89869Z" fill="black"/>
<path d="M34.6859 173.601C-17.5038 139.06 -5.67414 77.4986 36.2693 47.5885C37.5634 46.6657 39.3263 47.6086 39.3263 49.1981L39.3263 108.431C39.506 128.408 58.6579 140.539 66.8842 140.539H87.7513C88.0966 140.539 88.4306 140.629 88.731 140.799C89.8246 141.418 90.5799 141.85 91.9742 142.68C96.9947 146.225 99.9474 148.771 105.548 154.667C110.413 160.333 112.848 163.334 116.653 168.366C118.323 170.755 119.314 172.226 120.114 173.469C120.96 174.783 119.992 176.5 118.429 176.5L113.774 176.5H98.1439H77.5783H44.783C41.2105 176.5 37.665 175.573 34.6859 173.601Z" fill="black"/>
</svg>
